<!DOCTYPE svg PUBLIC "-//W3C//DTD SVG 1.1//EN" "http://www.w3.org/Graphics/SVG/1.1/DTD/svg11.dtd">
<!-- Uploaded to: SVG Repo, www.svgrepo.com, Transformed by: SVG Repo Mixer Tools -->
<svg fill="#ffffff" height="800px" width="800px" version="1.1" id="Layer_1" xmlns="http://www.w3.org/2000/svg" xmlns:xlink="http://www.w3.org/1999/xlink" viewBox="0 0 512 512" xml:space="preserve">
<g id="SVGRepo_bgCarrier" stroke-width="0"/>
<g id="SVGRepo_tracerCarrier" stroke-linecap="round" stroke-linejoin="round"/>
<g id="SVGRepo_iconCarrier"> <g> <g> <path d="M189.228,166.95h-16.696v16.696c0,27.62,22.468,50.088,50.088,50.088h16.696v-16.696 C239.316,189.419,216.848,166.95,189.228,166.95z"/> </g> </g> <g> <g> <path d="M373.536,42.508C266.754-46.472,99.182,11.12,75.128,151.303c-11.522,67.208,13.001,132.665,65.588,175.096 c20.218,16.315,31.816,41.365,31.816,68.729v33.392c0,27.62,22.468,50.088,50.088,50.088h16.696v16.696 c0,9.223,7.478,16.696,16.696,16.696c9.217,0,16.696-7.473,16.696-16.696v-16.696h16.696c27.62,0,50.088-22.468,50.088-50.088 v-33.392v-0.006c0-0.002,0-0.003,0-0.003c0-27.296,11.685-52.416,32.055-68.916c43.294-35.038,68.121-87.001,68.121-142.557 C439.668,128.983,415.559,77.541,373.536,42.508z M306.1,428.52c0,9.206-7.49,16.696-16.696,16.696H222.62 c-9.206,0-16.696-7.49-16.696-16.696v-16.696H306.1V428.52z M372.884,183.646c0,46.033-37.447,83.48-83.48,83.48h-16.696v111.306 h-33.392V267.126H222.62c-46.034,0-83.48-37.447-83.48-83.48v-33.392c0-9.223,7.479-16.696,16.696-16.696h33.392 c27.323,0,51.546,13.252,66.784,33.602c15.238-20.351,39.46-33.602,66.784-33.602h33.392c9.217,0,16.696,7.473,16.696,16.696 V183.646z"/> </g> </g> <g> <g> <path d="M322.796,166.95c-27.62,0-50.088,22.468-50.088,50.088v16.696h16.696c27.62,0,50.088-22.468,50.088-50.088V166.95H322.796 z"/> </g> </g> </g>
</svg>