<?xml version="1.0" encoding="utf-8"?>
<!-- Generator: Adobe Illustrator 26.0.3, SVG Export Plug-In . SVG Version: 6.00 Build 0)  -->
<svg version="1.0" id="katman_1" xmlns="http://www.w3.org/2000/svg" xmlns:xlink="http://www.w3.org/1999/xlink" x="0px" y="0px"
	 viewBox="0 0 600 450" style="enable-background:new 0 0 600 450;" xml:space="preserve">
<style type="text/css">
	.st0{fill:white;}
</style>
<path class="st0" d="M103.2,177.3c-4.7-5.6-8.8-11.2-9.6-12.4c-0.1-0.1-0.2-0.1-0.3,0c-0.8,1.2-4.9,6.8-9.6,12.4
	c-40.4,51.5,6.4,86.2,6.4,86.2l0.4,0.3c0.3,5.4,1.2,13.1,1.2,13.1h1.7h1.7c0,0,0.9-7.7,1.2-13.1l0.4-0.3
	C96.9,263.5,143.6,228.8,103.2,177.3z M93.5,262.7c0,0-2.1-1.8-2.7-2.7v-0.1l2.5-56.1c0-0.2,0.3-0.2,0.3,0l2.5,56.1v0.1
	C95.6,260.9,93.5,262.7,93.5,262.7z"/>
<path class="st0" d="M180.9,251.3l-19.5-47.6l0-0.1h-15.1v3.2h2.4c0.7,0,1.4,0.3,2,0.8c0.5,0.5,0.8,1.2,0.8,2l-0.4,47.9
	c0,1.5-1.2,2.7-2.7,2.8l-2.5,0v3.2h14.8v-3.2l-1.5,0c-1.5,0-2.7-1.3-2.7-2.8v-45.1l21.2,51.1c0.3,0.7,1,1.2,1.8,1.2
	c0.8,0,1.5-0.5,1.8-1.2l20.7-49.9l0.3,44c0,1.5-1.2,2.8-2.8,2.8h-1.6v3.2h17.3v-3.2h-2.4c-1.5,0-2.7-1.3-2.8-2.8l-0.1-47.9
	c0-1.5,1.2-2.8,2.7-2.8l2.5,0v-3.2h-14.8L180.9,251.3z"/>
<path class="st0" d="M316.7,259.4c-0.5-0.5-0.7-1.1-0.7-1.9V234c0-4.5-1.3-8-3.9-10.5c-2.6-2.5-6.2-3.8-10.6-3.8
	c-6.3,0-11.2,2.5-14.7,7.5c0,0.1-0.2,0.1-0.3,0.1c-0.1,0-0.2-0.1-0.2-0.2l-1.6-6.3h-2.7l-7,4v2.2h1.8c0.8,0,1.5,0.2,2,0.7
	c0.5,0.4,0.7,1.1,0.7,2v27.7c0,0.8-0.3,1.4-0.7,1.9c-0.5,0.5-1.1,0.7-1.9,0.7H275v3.2h16v-3.2h-1.8c-0.8,0-1.4-0.3-1.9-0.7
	c-0.5-0.5-0.7-1.1-0.7-1.9v-18.3c0-2.3,0.5-4.6,1.5-6.9c1-2.2,2.5-4.1,4.5-5.6c2-1.4,4.3-2.1,7-2.1c3.1,0,5.4,1,6.8,2.9
	c1.4,1.9,2.2,4.4,2.2,7.4v22.6c0,0.8-0.3,1.4-0.7,1.9c-0.5,0.5-1.1,0.7-1.9,0.7h-1.8v3.2h16v-3.2h-1.8
	C317.8,260.2,317.2,259.9,316.7,259.4z"/>
<path class="st0" d="M463,207.2c-4.4-2.4-9.4-3.6-14.7-3.6h-20.8v3.2h2c0.8,0,1.5,0.3,2.2,1c0.7,0.7,1,1.4,1,2.2v47
	c0,0.8-0.3,1.5-1,2.2c-0.7,0.7-1.4,1-2.2,1h-2v3.2h20.8c5.3,0,10.3-1.2,14.7-3.6c4.4-2.4,8-5.9,10.6-10.3c2.6-4.5,4-9.8,4-15.9
	c0-6.1-1.3-11.4-4-15.9C471,213,467.5,209.6,463,207.2z M469.2,233.4c0,5.6-1,10.3-3,14.1c-2,3.8-4.6,6.6-7.8,8.5
	c-3.2,1.8-6.8,2.8-10.6,2.8h-4.2c-0.8,0-1.5-0.3-2.2-1c-0.7-0.7-1-1.4-1-2.2v-44.3c0-0.8,0.3-1.5,1-2.2c0.7-0.7,1.4-1,2.2-1h4.2
	c3.8,0,7.4,0.9,10.6,2.8c3.2,1.8,5.8,4.7,7.8,8.5C468.2,223.1,469.2,227.9,469.2,233.4z"/>
<path class="st0" d="M526.9,236.6c-1.9-2.2-5.6-4.1-10-5.1c6-3,9.1-7.2,9.1-12.7c0-3-0.8-5.6-2.4-7.9c-1.6-2.3-3.8-4.1-6.6-5.4
	c-2.8-1.3-6.2-1.9-9.9-1.9h-23.6v3.2h1.9c0.8,0,1.5,0.3,2.2,1c0.7,0.7,1,1.4,1,2.2v47c0,0.8-0.4,1.5-1,2.2c-0.7,0.7-1.4,1-2.2,1
	h-2.1v3.2h25.6c3.9,0,7.5-0.7,10.8-2c3.3-1.3,5.9-3.2,7.8-5.8c1.9-2.5,2.9-5.6,2.9-9.2C530.3,242.5,529.2,239.3,526.9,236.6z
	 M497.5,257.8c-0.7-0.7-1-1.4-1-2.2v-21.1h12.2c4.3,0,7.6,1.1,9.8,3.3c2.3,2.2,3.4,5,3.4,8.5c0,2.1-0.5,4.1-1.5,6
	c-1,1.9-2.5,3.4-4.5,4.6c-2,1.2-4.4,1.8-7.3,1.8h-9C498.9,258.7,498.2,258.4,497.5,257.8z M496.5,230v-18.7c0-0.8,0.3-1.5,1-2.2
	c0.7-0.7,1.4-1,2.2-1h5.8c4.2,0,7.2,1,9.1,3.1c1.9,2.1,2.9,4.7,2.9,7.9c0,3.3-0.9,6-2.7,8c-1.8,2-4.5,3-8.1,3H496.5z"/>
<path class="st0" d="M255.7,222.5c-3.3-1.8-7.1-2.8-11.1-2.8c-4,0-7.8,0.9-11.1,2.8c-3.3,1.8-6,4.5-7.9,7.8c-2,3.4-3,7.3-3,11.6
	s1,8.3,3,11.6c2,3.4,4.6,6,7.9,7.8c3.3,1.8,7.1,2.8,11.1,2.8c4,0,7.8-0.9,11.1-2.8c3.3-1.8,6-4.5,7.9-7.8c2-3.4,3-7.3,3-11.6
	s-1-8.3-3-11.6C261.7,227,259,224.3,255.7,222.5z M258.9,242c0,5.4-1.3,9.7-3.9,12.8c-2.6,3.1-6.1,4.7-10.4,4.7
	c-4.3,0-7.9-1.6-10.4-4.7c-2.6-3.1-3.9-7.5-3.9-12.8s1.3-9.7,3.9-12.8c2.6-3.1,6.1-4.7,10.4-4.7c4.3,0,7.9,1.6,10.4,4.7
	C257.6,232.3,258.9,236.6,258.9,242z"/>
<path class="st0" d="M409.6,222.5c-3.3-1.8-7.1-2.8-11.1-2.8s-7.8,0.9-11.1,2.8c-3.3,1.8-6,4.5-7.9,7.8c-2,3.4-3,7.3-3,11.6
	s1,8.3,3,11.6c2,3.4,4.6,6,7.9,7.8c3.3,1.8,7.1,2.8,11.1,2.8s7.8-0.9,11.1-2.8c3.3-1.8,6-4.5,7.9-7.8c2-3.4,3-7.3,3-11.6
	s-1-8.3-3-11.6C415.6,227,412.9,224.3,409.6,222.5z M412.8,242c0,5.4-1.3,9.7-3.9,12.8c-2.6,3.1-6.1,4.7-10.4,4.7
	c-4.3,0-7.9-1.6-10.4-4.7c-2.6-3.1-3.9-7.5-3.9-12.8c0-5.4,1.3-9.7,3.9-12.8c2.6-3.1,6.1-4.7,10.4-4.7c4.3,0,7.9,1.6,10.4,4.7
	C411.5,232.3,412.8,236.6,412.8,242z"/>
<path class="st0" d="M347.5,219.7c-3.5,0-6.7,0.7-9.6,2.2c-2.9,1.5-5.2,3.5-6.8,6.1c-1.6,2.5-2.4,5.4-2.4,8.4c0,2.7,0.6,5.2,1.9,7.4
	c1.2,2.1,2.9,3.9,5,5.4l-6.3,8.5c-0.8,1-0.9,2.4-0.3,3.6c0.6,1.2,1.7,1.9,3.1,1.9h1.8c-1.7,1.2-3.1,2.6-4.1,4.2
	c-1.1,1.9-1.7,3.8-1.7,5.9c0,3.8,1.7,6.9,4.9,9.2c3.2,2.3,7.8,3.5,13.5,3.5c4,0,7.8-0.7,11.2-1.9c3.5-1.3,6.3-3.1,8.4-5.6
	c2.1-2.4,3.2-5.4,3.2-8.8c0-3.6-1.3-6.1-4.4-8.6c-2.6-2.1-6.7-3.1-11.9-3.1h-17.5c0,0-0.1,0-0.1,0s0-0.1,0-0.1l4.5-6.1
	c1.2,0.6,2.4,0.9,3.4,1.1c1,0.2,2.2,0.3,3.5,0.3c3.7,0,7-0.7,9.9-2.2c2.9-1.5,5.2-3.5,6.9-6.1c1.7-2.5,2.5-5.4,2.5-8.4
	c0-3.2-1.6-9.1-5.9-12.2c0,0,0,0,0,0l9.4,1v-4.3h-15C352.5,220.2,350.1,219.7,347.5,219.7z M352.8,247.1c-1.7,0.9-3.5,1.4-5.2,1.4
	c-2.9,0-5.5-1-7.7-3.1c-2.2-2.1-3.3-5.1-3.3-8.9s1.1-6.9,3.3-8.9c2.2-2.1,4.8-3.1,7.7-3.1c1.8,0,3.6,0.4,5.2,1.4
	c1.7,0.9,3,2.2,4.1,4c1,1.8,1.6,4,1.6,6.6c0,2.7-0.5,4.9-1.6,6.6C355.8,244.9,354.4,246.2,352.8,247.1z M340.9,263.2h11.9
	c3.3,0,5.4,0.7,6.8,2.1c1.4,1.4,2.1,3.3,2.1,5.5c0,3.2-1.3,5.8-3.8,7.8c-2.5,2-5.9,3-10.1,3c-3.7,0-6.7-0.8-9-2.4
	c-2.2-1.6-3.4-4-3.4-7c0-1.9,0.5-3.7,1.6-5.3C338,265.1,339.3,264,340.9,263.2z"/>
<path class="st0" d="M539.2,262.6c-0.9-0.5-1.5-1.2-2-2c-0.5-0.9-0.7-1.8-0.7-2.7c0-1,0.3-1.9,0.7-2.7c0.5-0.9,1.2-1.5,2-2
	c0.9-0.5,1.8-0.7,2.9-0.7c1.1,0,2,0.3,2.9,0.7c0.9,0.5,1.5,1.2,2,2c0.5,0.9,0.7,1.8,0.7,2.7c0,1-0.3,1.9-0.7,2.7
	c-0.5,0.9-1.2,1.5-2,2c-0.9,0.5-1.8,0.7-2.9,0.7C541.1,263.3,540.1,263.1,539.2,262.6z M544.6,262c0.7-0.4,1.3-1,1.7-1.7
	c0.4-0.7,0.6-1.5,0.6-2.4s-0.2-1.7-0.6-2.4c-0.4-0.7-1-1.3-1.7-1.7c-0.7-0.4-1.5-0.6-2.4-0.6s-1.7,0.2-2.4,0.6
	c-0.7,0.4-1.3,1-1.7,1.7c-0.4,0.7-0.6,1.5-0.6,2.4s0.2,1.7,0.6,2.4c0.4,0.7,1,1.3,1.7,1.7c0.7,0.4,1.5,0.6,2.4,0.6
	S543.9,262.4,544.6,262z M539.8,260.5v-0.4l0.1,0h0.3c0.1,0,0.2,0,0.2-0.1c0.1-0.1,0.1-0.1,0.1-0.2v-4c0-0.1,0-0.2-0.1-0.2
	c-0.1-0.1-0.1-0.1-0.2-0.1h-0.3l-0.1,0V255l0.1,0h2.2c0.6,0,1.1,0.1,1.5,0.4c0.4,0.3,0.6,0.7,0.6,1.2c0,0.4-0.1,0.8-0.4,1
	c-0.3,0.3-0.6,0.5-1.1,0.5l0.5,0.2l1,1.6c0.1,0.1,0.2,0.2,0.3,0.2h0.3l0,0v0.4l0,0h-1.3l-0.1,0l-1.4-2.3h-0.3v1.5
	c0,0.1,0,0.2,0.1,0.2c0.1,0.1,0.1,0.1,0.2,0.1h0.3l0.1,0v0.4l-0.1,0L539.8,260.5L539.8,260.5z M542,257.7c0.3,0,0.6-0.1,0.8-0.3
	c0.2-0.2,0.3-0.5,0.3-0.8c0-0.3-0.1-0.6-0.3-0.8c-0.2-0.2-0.4-0.3-0.7-0.3H542c-0.1,0-0.2,0-0.2,0.1c-0.1,0.1-0.1,0.1-0.1,0.2v1.9
	H542z"/>
</svg>
